<svg xmlns="http://www.w3.org/2000/svg" viewBox="0 0 32 32"><title>icons</title><path d="M9.11449,15.75411v4.99441a2.86179,2.86179,0,0,0,2.8534,2.85339h3.04864" style="fill:none;stroke:#000;stroke-linecap:round;stroke-miterlimit:10;stroke-width:1.2px"/><line x1="9.114" x2="11.798" y1="15.754" y2="18.438" style="fill:none;stroke:#000;stroke-linecap:round;stroke-miterlimit:10;stroke-width:1.2px"/><line x1="9.114" x2="6.431" y1="15.754" y2="18.438" style="fill:none;stroke:#000;stroke-linecap:round;stroke-miterlimit:10;stroke-width:1.2px"/><rect width="8.39" height="8.39" x="4.92" y="4.203" transform="translate(17.51258 -0.7164) rotate(90)" style="fill:none;stroke:#000;stroke-linecap:round;stroke-linejoin:round;stroke-width:1.5px"/><path d="M22.88551,16.24589V11.25148a2.86179,2.86179,0,0,0-2.8534-2.85339H16.98347" style="fill:none;stroke:#000;stroke-linecap:round;stroke-miterlimit:10;stroke-width:1.2px"/><line x1="22.886" x2="20.202" y1="16.246" y2="13.562" style="fill:none;stroke:#000;stroke-linecap:round;stroke-miterlimit:10;stroke-width:1.2px"/><line x1="22.886" x2="25.569" y1="16.246" y2="13.562" style="fill:none;stroke:#000;stroke-linecap:round;stroke-miterlimit:10;stroke-width:1.2px"/><polyline points="19.878 19.407 18.691 19.407 18.691 20.595" style="fill:none;stroke:#000;stroke-linecap:round;stroke-linejoin:round;stroke-width:1.2px"/><line x1="18.691" x2="18.691" y1="22.85" y2="25.481" style="fill:none;stroke:#000;stroke-linecap:round;stroke-linejoin:round;stroke-width:1.2px;stroke-dasharray:1.5035455226898193,2.2553179264068604"/><polyline points="18.691 26.609 18.691 27.797 19.878 27.797" style="fill:none;stroke:#000;stroke-linecap:round;stroke-linejoin:round;stroke-width:1.2px"/><line x1="22.134" x2="24.765" y1="27.797" y2="27.797" style="fill:none;stroke:#000;stroke-linecap:round;stroke-linejoin:round;stroke-width:1.2px;stroke-dasharray:1.5035455226898193,2.2553179264068604"/><polyline points="25.893 27.797 27.08 27.797 27.08 26.609" style="fill:none;stroke:#000;stroke-linecap:round;stroke-linejoin:round;stroke-width:1.2px"/><line x1="27.08" x2="27.08" y1="24.354" y2="21.722" style="fill:none;stroke:#000;stroke-linecap:round;stroke-linejoin:round;stroke-width:1.2px;stroke-dasharray:1.5035455226898193,2.2553179264068604"/><polyline points="27.08 20.595 27.08 19.407 25.893 19.407" style="fill:none;stroke:#000;stroke-linecap:round;stroke-linejoin:round;stroke-width:1.2px"/><line x1="23.637" x2="21.006" y1="19.407" y2="19.407" style="fill:none;stroke:#000;stroke-linecap:round;stroke-linejoin:round;stroke-width:1.2px;stroke-dasharray:1.5035455226898193,2.2553179264068604"/></svg>